<?xml version="1.0" encoding="utf-8"?>
<!-- Generator: Adobe Illustrator 21.1.0, SVG Export Plug-In . SVG Version: 6.00 Build 0)  -->
<svg version="1.1" id="Layer_1" xmlns="http://www.w3.org/2000/svg" xmlns:xlink="http://www.w3.org/1999/xlink" x="0px" y="0px"
	 width="191px" height="35px" viewBox="0 0 191 35" style="enable-background:new 0 0 191 35;" xml:space="preserve">
<g id="logo_x5F_hero_x5F_small">
	<g>
		<g>
			<g>
				<path d="M113.68,11.25c0.82-1.03,1.38-2.41,1.24-3.83c-1.21,0.06-2.68,0.8-3.53,1.83c-0.76,0.88-1.44,2.32-1.27,3.68
					C111.48,13.04,112.83,12.25,113.68,11.25"/>
				<path d="M114.9,13.19c-1.97-0.12-3.64,1.12-4.57,1.12c-0.94,0-2.38-1.06-3.93-1.03c-2.02,0.03-3.9,1.17-4.93,2.99
					c-2.11,3.64-0.56,9.04,1.5,12c1,1.47,2.2,3.08,3.78,3.02c1.5-0.06,2.08-0.97,3.9-0.97s2.35,0.97,3.93,0.94
					c1.64-0.03,2.67-1.47,3.67-2.94c1.14-1.67,1.61-3.29,1.64-3.37c-0.03-0.03-3.17-1.23-3.2-4.84c-0.03-3.02,2.46-4.46,2.58-4.55
					C117.87,13.48,115.67,13.25,114.9,13.19"/>
			</g>
			<g>
				<path d="M122.75,20.1c0-6.97,3.94-11.37,10.08-11.37c4.99,0,8.76,3.07,9.34,7.66h-3.39c-0.61-2.82-2.96-4.67-5.95-4.67
					c-4,0-6.59,3.28-6.59,8.38c0,5.14,2.56,8.39,6.61,8.39c3.07,0,5.25-1.57,5.93-4.23h3.4c-0.84,4.55-4.29,7.22-9.35,7.22
					C126.66,31.48,122.75,27.12,122.75,20.1z"/>
				<path d="M143.77,26.55c0-2.81,2.15-4.53,5.97-4.74l4.39-0.26v-1.24c0-1.79-1.21-2.85-3.22-2.85c-1.91,0-3.1,0.92-3.39,2.35
					h-3.11c0.18-2.9,2.65-5.03,6.62-5.03c3.89,0,6.38,2.06,6.38,5.28v11.06h-3.16v-2.64h-0.08c-0.93,1.79-2.96,2.91-5.07,2.91
					C145.97,31.39,143.77,29.43,143.77,26.55z M154.13,25.1v-1.27l-3.95,0.24c-1.97,0.14-3.08,1.01-3.08,2.38
					c0,1.4,1.16,2.32,2.93,2.32C152.33,28.78,154.13,27.19,154.13,25.1z"/>
				<path d="M160.6,15.06h3.14v2.73h0.08c0.53-1.88,1.97-2.99,3.86-2.99c0.47,0,0.88,0.08,1.13,0.12v3.07
					c-0.26-0.11-0.84-0.18-1.48-0.18c-2.12,0-3.43,1.42-3.43,3.69v9.61h-3.3L160.6,15.06L160.6,15.06z"/>
				<path d="M169.42,23.09c0-5.07,2.68-8.28,6.71-8.28c2.3,0,4.13,1.16,5.03,2.93h0.06V9.1h3.31v22.02h-3.2v-2.73h-0.06
					c-0.95,1.83-2.78,3.01-5.11,3.01C172.1,31.39,169.42,28.15,169.42,23.09z M172.79,23.09c0,3.39,1.63,5.51,4.24,5.51
					c2.53,0,4.23-2.15,4.23-5.51c0-3.33-1.69-5.51-4.23-5.51C174.42,17.58,172.79,19.72,172.79,23.09z"/>
			</g>
		</g>
		<g style="enable-background:new    ;">
			<path d="M11.82,30.89V11.63H4.98V8.65h17.11v2.97h-6.82v19.26H11.82z"/>
			<path d="M24.63,8.65h3.31v8.78h0.08c0.97-1.94,2.66-2.94,5.15-2.94c3.57,0,5.7,2.37,5.7,6.04v10.36h-3.35V21.2
				c0-2.39-1.21-3.84-3.55-3.84c-2.47,0-3.99,1.7-3.99,4.27v9.26h-3.34V8.65z"/>
			<path d="M41.92,10.41c0-1.08,0.87-1.91,1.93-1.91c1.08,0,1.95,0.83,1.95,1.91c0,1.05-0.87,1.9-1.95,1.9
				C42.78,12.31,41.92,11.46,41.92,10.41z M42.18,14.68h3.34v16.21h-3.34V14.68z"/>
			<path d="M55.01,14.5c3.6,0,6.18,1.99,6.26,4.85h-3.14c-0.14-1.43-1.36-2.31-3.22-2.31c-1.81,0-3.01,0.83-3.01,2.1
				c0,0.97,0.8,1.62,2.49,2.03l2.74,0.63c3.28,0.79,4.51,1.99,4.51,4.36c0,2.93-2.78,4.93-6.75,4.93c-3.83,0-6.41-1.96-6.66-4.92
				h3.31c0.23,1.56,1.48,2.39,3.51,2.39c1.99,0,3.25-0.82,3.25-2.11c0-1-0.62-1.54-2.32-1.97l-2.91-0.71
				c-2.94-0.71-4.42-2.2-4.42-4.45C48.64,16.45,51.22,14.5,55.01,14.5z"/>
			<path d="M70.49,10.41c0-1.08,0.87-1.91,1.93-1.91c1.08,0,1.95,0.83,1.95,1.91c0,1.05-0.87,1.9-1.95,1.9
				C71.36,12.31,70.49,11.46,70.49,10.41z M70.76,14.68h3.34v16.21h-3.34V14.68z"/>
			<path d="M83.58,14.5c3.6,0,6.18,1.99,6.26,4.85h-3.14c-0.14-1.43-1.36-2.31-3.22-2.31c-1.81,0-3.01,0.83-3.01,2.1
				c0,0.97,0.8,1.62,2.49,2.03l2.74,0.63c3.28,0.79,4.51,1.99,4.51,4.36c0,2.93-2.78,4.93-6.75,4.93c-3.83,0-6.41-1.96-6.66-4.92
				h3.31c0.23,1.56,1.48,2.39,3.51,2.39c1.99,0,3.25-0.82,3.25-2.11c0-1-0.62-1.54-2.32-1.97l-2.91-0.71
				c-2.94-0.71-4.42-2.2-4.42-4.45C77.22,16.45,79.8,14.5,83.58,14.5z"/>
		</g>
	</g>
</g>
</svg>
